<svg width="24" height="24" xmlns="http://www.w3.org/2000/svg">

 <g class="currentLayer">
  <title>Layer 1</title>
  <path fill="#f33f35" id="svg_1" d="m24,0l-6,22l-8.129,-7.239l7.802,-8.234l-10.458,7.227l-7.215,-1.754l24,-12zm-15,16.668l0,7.332l3.258,-4.431l-3.258,-2.901z"/>
 </g>
 <g>
  <title>Layer 2</title>
  <line stroke="#fff" stroke-linecap="undefined" stroke-linejoin="undefined" id="svg_10" y2="22.23788" x2="18.52425" y1="14.67437" x1="10.03695" fill="none"/>
  <line stroke="#fff" stroke-linecap="undefined" stroke-linejoin="undefined" id="svg_11" y2="0.00924" x2="24.00924" y1="22.41109" x1="18.00462" fill="none"/>
  <line transform="rotate(-1.73728 13.6744 10.7483)" stroke="#fff" stroke-linecap="undefined" stroke-linejoin="undefined" id="svg_12" y2="6.42163" x2="17.60829" y1="15.0749" x1="9.74044" fill="none"/>
  <line stroke-linecap="undefined" stroke-linejoin="undefined" id="svg_14" y2="6.53349" x2="17.54273" y1="13.6351" x1="7.38106" stroke="#fff" fill="none"/>
  <line stroke-linecap="undefined" stroke-linejoin="undefined" id="svg_15" y2="0.06697" x2="23.89376" y1="11.96074" x1="0.10624" stroke="#fff" fill="none"/>
  <line stroke="#fff" stroke-linecap="undefined" stroke-linejoin="undefined" id="svg_16" y2="13.86605" x2="7.90069" y1="11.96074" x1="-0.47113" fill="none"/>
  <line stroke="#fff" stroke-linecap="undefined" stroke-linejoin="undefined" id="svg_17" y2="23.96998" x2="8.99769" y1="16.69515" x1="8.99769" fill="none"/>
  <line stroke-linecap="undefined" stroke-linejoin="undefined" id="svg_18" y2="19.63972" x2="12.05774" y1="16.86836" x1="8.99769" stroke="#fff" fill="none"/>
  <line stroke-linecap="undefined" stroke-linejoin="undefined" id="svg_19" y2="23.96998" x2="9.1709" y1="19.46651" x1="12" stroke="#fff" fill="none"/>
 </g>
</svg>